<svg xmlns="http://www.w3.org/2000/svg" width="46" height="36" viewBox="0 0 46 36"><defs><style>.a{fill:none;}.b{fill:#58595b;}.c{fill:#0076bd;}</style></defs><g transform="translate(0 1)"><rect class="a" width="46" height="36" transform="translate(0 -1)"/><path class="b" d="M38.6,5H20.2a2.407,2.407,0,0,0-2.4,2.4v4.8H10.2A5.19,5.19,0,0,0,5,17.4V27a2.407,2.407,0,0,0,2.4,2.4h2.88a3.606,3.606,0,0,0,7.12-.8,3.519,3.519,0,0,0-2-3.2V18.2h2.4v4.4A2.407,2.407,0,0,0,20.2,25H38.6A2.407,2.407,0,0,0,41,22.6V7.4A2.407,2.407,0,0,0,38.6,5ZM15.8,28.6a2,2,0,1,1-2-2A1.981,1.981,0,0,1,15.8,28.6Zm-1.2-12a.8.8,0,0,0-.8.8V25a3.606,3.606,0,0,0-3.52,2.8H7.4a.8.8,0,0,1-.8-.8V17.4a3.585,3.585,0,0,1,3.6-3.6h10a.8.8,0,0,1,.8.8v1.2a.8.8,0,0,1-.8.8Zm24.8,6a.8.8,0,0,1-.8.8H20.2a.8.8,0,0,1-.8-.8V18.2h.8a2.407,2.407,0,0,0,2.4-2.4V14.6a2.407,2.407,0,0,0-2.4-2.4h-.8V7.4a.8.8,0,0,1,.8-.8H38.6a.8.8,0,0,1,.8.8ZM13.8,8.6a3.6,3.6,0,1,0-3.6,3.6A3.585,3.585,0,0,0,13.8,8.6Zm-3.6,2a2,2,0,1,1,2-2A1.981,1.981,0,0,1,10.2,10.6Zm14,21.6Zm0-1.6Zm6.8-2A3.6,3.6,0,1,0,34.6,25,3.585,3.585,0,0,0,31,28.6Zm3.6-2a2,2,0,1,1-2,2A1.981,1.981,0,0,1,34.6,26.6ZM29.4,37.4a5.2,5.2,0,0,0-10.4,0,5.2,5.2,0,0,0-10.4,0v1.2A2.407,2.407,0,0,0,11,41h5.6A2.407,2.407,0,0,0,19,38.6,2.407,2.407,0,0,0,21.4,41H27a2.407,2.407,0,0,0,2.4-2.4A2.407,2.407,0,0,0,31.8,41h5.6a2.407,2.407,0,0,0,2.4-2.4V37.4a5.2,5.2,0,0,0-10.4,0Zm-12,1.2a.8.8,0,0,1-.8.8H11a.8.8,0,0,1-.8-.8V37.4a3.6,3.6,0,1,1,7.2,0Zm10.4,0a.8.8,0,0,1-.8.8H21.4a.8.8,0,0,1-.8-.8V37.4a3.6,3.6,0,0,1,7.2,0ZM31,37.4a3.6,3.6,0,0,1,7.2,0v1.2a.8.8,0,0,1-.8.8H31.8a.8.8,0,0,1-.8-.8Z" transform="translate(0 -6)"/><path class="c" d="M27.927,26.625Zm-3.6,3.6a3.6,3.6,0,1,0,3.6-3.6A3.585,3.585,0,0,0,24.327,30.225Zm3.6-2a2,2,0,1,1-2,2A1.981,1.981,0,0,1,27.927,28.225Zm0,5.6Zm12-19.6v6.8a.8.8,0,0,1-.8.8h-8.8a.8.8,0,0,1-.8-.8v-3.6a.8.8,0,1,1,1.6,0v2.8h2.8v-4.4a.8.8,0,1,1,1.6,0v4.4h2.8v-6a.8.8,0,1,1,1.6,0Z" transform="translate(-3.727 -6.625)"/></g></svg>