<svg xmlns="http://www.w3.org/2000/svg" width="64.241" height="64.232" viewBox="0 0 64.241 64.232"><defs><style>.a{fill:#fcdb03;stroke:#fcdb03;stroke-width:3px;}</style></defs><path class="a" d="M18.632,61.105a1.694,1.694,0,0,1-.954-2.192l3.643-9.273a1.69,1.69,0,0,1,3.146,1.236l-3.648,9.273a1.686,1.686,0,0,1-2.187.956Zm22.84-1.332-3.978-9.136a1.69,1.69,0,1,1,3.1-1.347l3.98,9.132a1.692,1.692,0,0,1-3.1,1.352ZM.577,43.7a1.691,1.691,0,0,1,.875-2.224l9.131-3.98a1.69,1.69,0,1,1,1.35,3.1L2.8,44.575A1.691,1.691,0,0,1,.577,43.7Zm58.337-.156L49.646,39.9a1.687,1.687,0,1,1,1.23-3.142L60.15,40.4a1.689,1.689,0,0,1-1.236,3.143ZM10.346,24.464,1.072,20.82A1.689,1.689,0,1,1,2.31,17.677l9.27,3.639a1.691,1.691,0,1,1-1.234,3.148Zm38.07-1.612a1.693,1.693,0,0,1,.875-2.224l9.13-3.98a1.69,1.69,0,0,1,1.352,3.1l-9.132,3.98a1.693,1.693,0,0,1-2.225-.874ZM20.629,11.932,16.644,2.8a1.691,1.691,0,0,1,3.1-1.352l3.982,9.136a1.688,1.688,0,1,1-3.1,1.346Zm17.086.6a1.688,1.688,0,0,1-.955-2.187L40.4,1.072a1.69,1.69,0,0,1,3.146,1.237l-3.641,9.269a1.7,1.7,0,0,1-1.574,1.075A1.657,1.657,0,0,1,37.715,12.534Z" transform="translate(1.51 1.51)"/></svg>