<svg xmlns="http://www.w3.org/2000/svg" width="58.687" height="58.687" viewBox="0 0 58.687 58.687"><defs><style>.a{fill:#fcdb03;stroke:#fcdb03;stroke-linecap:round;stroke-linejoin:round;stroke-width:3px;}</style></defs><path class="a" d="M34.475,55.687a1.3,1.3,0,0,1-1.3-1.3V54.2a1.394,1.394,0,0,1,1.391-1.391h16.63a1.6,1.6,0,0,0,1.6-1.592v-16.5a1.5,1.5,0,0,1,1.5-1.494,1.394,1.394,0,0,1,1.391,1.388V53.029a2.663,2.663,0,0,1-2.668,2.657Zm-31.81,0A2.662,2.662,0,0,1,0,53.029V34.524a1.3,1.3,0,0,1,1.3-1.3h.187a1.391,1.391,0,0,1,1.392,1.388V51.205a1.6,1.6,0,0,0,1.6,1.592H21.011a1.5,1.5,0,0,1,1.5,1.5,1.391,1.391,0,0,1-1.392,1.389ZM54.194,22.46A1.39,1.39,0,0,1,52.8,21.071V4.48a1.6,1.6,0,0,0-1.6-1.595H34.668a1.5,1.5,0,0,1-1.5-1.5A1.392,1.392,0,0,1,34.563,0H53.019a2.662,2.662,0,0,1,2.668,2.656v18.5a1.3,1.3,0,0,1-1.3,1.3ZM0,21.071V2.656A2.663,2.663,0,0,1,2.665,0H21.207a1.3,1.3,0,0,1,1.3,1.3v.187a1.4,1.4,0,0,1-1.392,1.393H4.494a1.593,1.593,0,0,0-1.6,1.59V20.963a1.5,1.5,0,0,1-1.506,1.5A1.391,1.391,0,0,1,0,21.071Z" transform="translate(1.5 1.5)"/></svg>