<svg xmlns="http://www.w3.org/2000/svg" width="67.19" height="67.189" viewBox="0 0 67.19 67.189"><defs><style>.a{fill:#fcdb03;stroke:#fcdb03;stroke-width:3px;}</style></defs><path class="a" d="M22.272,64.189a1.526,1.526,0,0,1-1.527-1.524V45.125a1.692,1.692,0,0,0-1.69-1.692H1.525a1.525,1.525,0,0,1,0-3.05H20.99A2.818,2.818,0,0,1,23.808,43.2V62.665a1.526,1.526,0,0,1-1.524,1.524ZM42.462,44a1.527,1.527,0,0,1-1.524-1.524V24.93a1.692,1.692,0,0,0-1.692-1.692H21.716a1.524,1.524,0,1,1,0-3.048H41.182A2.818,2.818,0,0,1,44,23.007V42.474A1.528,1.528,0,0,1,42.473,44Zm20.152-20.19a1.474,1.474,0,0,1-1.473-1.473V4.752a1.691,1.691,0,0,0-1.69-1.69H41.971a1.591,1.591,0,0,1-1.589-1.587A1.476,1.476,0,0,1,41.855,0H61.372A2.817,2.817,0,0,1,64.19,2.819v19.61a1.379,1.379,0,0,1-1.376,1.379Z" transform="translate(1.5 1.5)"/></svg>