<svg xmlns="http://www.w3.org/2000/svg" viewBox="0 0 586.75 137.84"><defs><style>.cls-1{fill:#ef402f;}.cls-2{fill:#f4b223;}.cls-3{fill:#2c9942;}.cls-4{fill:#0075c9;}.cls-5{fill:#101820;}</style></defs><g id="Layer_2" data-name="Layer 2"><g id="Layer_1-2" data-name="Layer 1"><path class="cls-1" d="M8.39,85.69h0A8.36,8.36,0,0,0,0,94.06v35.41a8.38,8.38,0,0,0,8.37,8.37H43.78a8.37,8.37,0,0,0,8.37-8.37h0a8.37,8.37,0,0,0-8.37-8.37h-20a7,7,0,0,1-7-7v-20a8.37,8.37,0,0,0-8.37-8.37Z"/><path class="cls-2" d="M0,24.91V60.66a8.28,8.28,0,0,0,8.28,8.28h0a8.47,8.47,0,0,0,8.48-8.47v-20a6.93,6.93,0,0,1,6.93-6.93H43.87a8.28,8.28,0,0,0,8.28-8.28v-.34A8.11,8.11,0,0,0,44,16.79H8.12A8.11,8.11,0,0,0,0,24.91Z"/><path class="cls-3" d="M97.29,121.1h-20a8.36,8.36,0,0,0-8.37,8.37h0a8.36,8.36,0,0,0,8.37,8.37h35.41a8.37,8.37,0,0,0,8.37-8.37V94.06a8.36,8.36,0,0,0-8.37-8.37h0a8.35,8.35,0,0,0-8.37,8.37v20a7,7,0,0,1-7,7Z"/><path class="cls-4" d="M123.08,0H83.66A14.75,14.75,0,0,0,68.9,14.76V54.18A14.75,14.75,0,0,0,83.66,68.94h39.42a14.75,14.75,0,0,0,14.76-14.76V14.76A14.76,14.76,0,0,0,123.08,0Z"/><path class="cls-5" d="M203.85,53.68a31.45,31.45,0,0,0-15.78-3.79,33.71,33.71,0,0,0-18,4.69,30.32,30.32,0,0,0-11.57,12.61,39,39,0,0,0-3.93,17.57A38.92,38.92,0,0,0,158.85,103a31.9,31.9,0,0,0,12.61,13q8.34,4.83,20.19,4.82a50.44,50.44,0,0,0,22.88-5.23l-1.1-12.82a40.73,40.73,0,0,1-20.26,5.1q-9.1,0-15.23-4.82t-7.37-15.44h46a35.83,35.83,0,0,0,1-8.41,31.8,31.8,0,0,0-3.51-15.15A25.67,25.67,0,0,0,203.85,53.68Zm-32.73,23.5q3.44-14.34,16.81-14.33,7,0,10.47,4.13a15.4,15.4,0,0,1,3.45,10.2Z"/><path class="cls-5" d="M258.08,49.89a31.63,31.63,0,0,0-20,6.89l-.55-5.65H223.9v68.35h15.43V69.6q5.23-6.75,14.89-6.75,8.13,0,11.64,4.68t3.52,14.88v37.07h15.29v-38q0-14.74-6.61-23.15T258.08,49.89Z"/><path class="cls-5" d="M313.75,33.77l-15.43,1.65V51.13h-9L288,63.53h10.34v40a17.59,17.59,0,0,0,4.61,12.26q4.62,5.1,13.58,5.1h11.85l1.38-12.54H325.6a32.62,32.62,0,0,1-8.2-.69,4.19,4.19,0,0,1-3-3,33.4,33.4,0,0,1-.69-8.34V63.53h16.12V51.13H313.75Z"/><path class="cls-5" d="M384.17,54.51a38.47,38.47,0,0,0-37.07,0A31.89,31.89,0,0,0,335,67.39a38.48,38.48,0,0,0-4.2,17.92,38.44,38.44,0,0,0,4.2,17.91,31.92,31.92,0,0,0,12.06,12.89,38.54,38.54,0,0,0,37.07,0,31.48,31.48,0,0,0,12-12.89,38.88,38.88,0,0,0,4.13-17.91,38.93,38.93,0,0,0-4.13-17.92A31.45,31.45,0,0,0,384.17,54.51Zm-4.62,47.33q-5,6.07-14,6.07t-13.92-6.07q-5-6.06-5-16.53t5-16.47q5-6.14,13.92-6.13t14,6.13q5,6.14,5,16.47T379.55,101.84Z"/><path class="cls-5" d="M484.77,49.89a30.76,30.76,0,0,0-13.57,2.83,23.67,23.67,0,0,0-9.45,8.06q-6.47-10.89-20.53-10.89a32,32,0,0,0-20.53,7.3l-1-6.06H406.91v68.35h15.43V69.74q5.24-6.9,15-6.89,7.17,0,10.68,4.54t3.52,15v37.07h15.29V80.9q0-8.13,3.59-13.09t11.71-5q7.44,0,10.68,4.47t3.24,14.13v38H511.5V80.62q0-14.88-6.61-22.8T484.77,49.89Z"/><path class="cls-5" d="M582.61,67.39a31.39,31.39,0,0,0-12-12.88,38.47,38.47,0,0,0-37.07,0,32,32,0,0,0-12.06,12.88,38.48,38.48,0,0,0-4.2,17.92,38.44,38.44,0,0,0,4.2,17.91,32.05,32.05,0,0,0,12.06,12.89,38.54,38.54,0,0,0,37.07,0,31.41,31.41,0,0,0,12-12.89,38.89,38.89,0,0,0,4.14-17.91A38.93,38.93,0,0,0,582.61,67.39ZM566,101.84q-5,6.07-14,6.07t-13.92-6.07q-5-6.06-5-16.53t5-16.47q5-6.14,13.92-6.13t14,6.13q5,6.14,5,16.47T566,101.84Z"/></g></g></svg>